<svg height="512" viewBox="0 0 64 64" width="512" xmlns="http://www.w3.org/2000/svg" xmlns:xlink="http://www.w3.org/1999/xlink"><linearGradient id="linear-gradient" gradientUnits="userSpaceOnUse" x1="-1" x2="63.498" y1="32" y2="32"><stop offset="0" stop-color="#b24592"/><stop offset="1" stop-color="#f15f79"/></linearGradient><linearGradient id="linear-gradient-2" x2="63.498" xlink:href="#linear-gradient" y1="45" y2="45"/><linearGradient id="linear-gradient-4" x2="63.498" xlink:href="#linear-gradient" y1="53" y2="53"/><linearGradient id="linear-gradient-7" x2="63.498" xlink:href="#linear-gradient" y1="47" y2="47"/><linearGradient id="linear-gradient-8" x2="63.498" xlink:href="#linear-gradient" y1="55" y2="55"/><linearGradient id="linear-gradient-12" x2="63.498" xlink:href="#linear-gradient" y1="23.5" y2="23.5"/><linearGradient id="linear-gradient-13" x2="63.498" xlink:href="#linear-gradient" y1="10" y2="10"/><linearGradient id="linear-gradient-14" x2="63.498" xlink:href="#linear-gradient" y1="17" y2="17"/><linearGradient id="linear-gradient-15" x2="63.498" xlink:href="#linear-gradient" y1="7" y2="7"/><linearGradient id="linear-gradient-16" x2="63.498" xlink:href="#linear-gradient" y1="11" y2="11"/><g id="Gradient_outline" data-name="Gradient outline"><path d="m9 62h46v-60h-46zm2-58h42v56h-42z" fill="url(#linear-gradient)"/><path d="m13 48h6v-6h-6zm2-4h2v2h-2z" fill="url(#linear-gradient-2)"/><path d="m29 48h6v-6h-6zm2-4h2v2h-2z" fill="url(#linear-gradient-2)"/><path d="m21 56h6v-6h-6zm2-4h2v2h-2z" fill="url(#linear-gradient-4)"/><path d="m29 56h6v-6h-6zm2-4h2v2h-2z" fill="url(#linear-gradient-4)"/><path d="m37 48h6v-6h-6zm2-4h2v2h-2z" fill="url(#linear-gradient-2)"/><path d="m21 46h6v2h-6z" fill="url(#linear-gradient-7)"/><g fill="url(#linear-gradient-8)"><path d="m13 54h6v2h-6z"/><path d="m37 54h6v2h-6z"/><path d="m45 54h6v2h-6z"/></g><path d="m45 46h6v2h-6z" fill="url(#linear-gradient-7)"/><path d="m40.707 29.293-3.707-3.707v-4.109l3.629 1.452.742-1.858-3.671-1.466a3.98 3.98 0 0 0 -.7-7.463v-4.142h-19v29h-5v2h13v-2h-6v-21.586l5.414-5.414h9.586v2.142a3.98 3.98 0 0 0 -.7 7.463l-3.667 1.466.742 1.858 3.625-1.452v4.109l-3.707 3.707 1.414 1.414 3.293-3.293 3.293 3.293zm-20.707-16.707v-2.586h2.586zm14 3.414a2 2 0 1 1 2 2 2 2 0 0 1 -2-2z" fill="url(#linear-gradient-12)"/><path d="m45 8h4v6h2v-8h-6z" fill="url(#linear-gradient-13)"/><path d="m49 16h2v2h-2z" fill="url(#linear-gradient-14)"/><path d="m13 6h2v2h-2z" fill="url(#linear-gradient-15)"/><path d="m13 10h2v2h-2z" fill="url(#linear-gradient-16)"/></g></svg>